<?xml version="1.0" standalone="no"?>
<!DOCTYPE svg PUBLIC "-//W3C//DTD SVG 20010904//EN"
 "http://www.w3.org/TR/2001/REC-SVG-20010904/DTD/svg10.dtd">
<svg version="1.0" xmlns="http://www.w3.org/2000/svg"
 width="1366.000000pt" height="768.000000pt" viewBox="0 0 1366.000000 768.000000"
 preserveAspectRatio="xMidYMid meet">

<g transform="translate(0.000000,768.000000) scale(0.100000,-0.100000)"
fill="#000000" stroke="none">
<path d="M4905 5528 c-49 -18 -84 -47 -105 -88 -20 -38 -20 -64 -20 -1275 0
-1015 2 -1241 14 -1268 16 -39 76 -94 114 -104 15 -5 882 -8 1927 -8 l1900 0
40 21 c49 27 70 49 90 97 13 32 15 181 15 1259 0 1165 -1 1225 -19 1263 -22
50 -69 91 -119 105 -52 14 -3796 12 -3837 -2z m3795 -1173 l0 -1005 -1872 2
-1873 3 -3 990 c-1 545 0 996 3 1003 3 9 388 12 1875 12 l1870 0 0 -1005z
m-1464 -1239 c37 -37 44 -74 22 -121 -24 -54 -36 -55 -438 -55 l-372 0 -29 29
c-23 23 -29 38 -29 71 0 51 12 75 48 94 22 13 90 15 395 16 l369 0 34 -34z"/>
<path d="M6462 3084 c-27 -18 -29 -55 -4 -77 17 -15 57 -17 375 -17 l356 0 15
22 c21 30 20 44 -4 68 -19 19 -33 20 -368 20 -298 0 -351 -2 -370 -16z"/>
<path d="M6455 2708 c-9 -25 -85 -252 -85 -255 0 -2 207 -3 459 -3 l460 0 -46
135 -45 135 -369 0 c-287 0 -371 -3 -374 -12z"/>
<path d="M5898 2380 c-68 -12 -136 -48 -190 -101 -39 -39 -88 -113 -88 -134 0
-3 542 -5 1205 -5 827 0 1205 3 1205 10 0 23 -43 93 -80 130 -50 50 -119 85
-195 99 -69 13 -1781 13 -1857 1z"/>
</g>
</svg>
